<svg width="301.104492" height="194.000000" viewBox="0 0 301.104 194" fill="none" xmlns="http://www.w3.org/2000/svg" xmlns:xlink="http://www.w3.org/1999/xlink">
	<desc>
			Created with Pixso.
	</desc>
	<defs>
		<linearGradient x1="11.228989" y1="187.361526" x2="108.677109" y2="-46.347134" id="paint_linear_77_13_0" gradientUnits="userSpaceOnUse">
			<stop offset="0.190000" stop-color="#247EFF"/>
			<stop offset="0.447741" stop-color="#1ECCF1"/>
			<stop offset="0.710000" stop-color="#28FFEF"/>
		</linearGradient>
		<linearGradient x1="98.863571" y1="28.688061" x2="201.016968" y2="205.126312" id="paint_linear_77_14_0" gradientUnits="userSpaceOnUse">
			<stop offset="0.020000" stop-color="#3D2CFE"/>
			<stop offset="0.290000" stop-color="#703EFF"/>
			<stop offset="0.595191" stop-color="#B050FF"/>
			<stop offset="0.970992" stop-color="#F261FF"/>
		</linearGradient>
		<linearGradient x1="141.368790" y1="151.482254" x2="7.256302" y2="151.482254" id="paint_linear_77_15_0" gradientUnits="userSpaceOnUse">
			<stop stop-color="#2646FF"/>
			<stop offset="0.300000" stop-color="#3776FF"/>
			<stop offset="0.849857" stop-color="#4DC9FF"/>
		</linearGradient>
		<linearGradient x1="199.395325" y1="80.690109" x2="303.472626" y2="168.380920" id="paint_linear_77_16_0" gradientUnits="userSpaceOnUse">
			<stop stop-color="#FF57FF"/>
			<stop offset="0.360000" stop-color="#ED55FF"/>
			<stop offset="1.000000" stop-color="#C34CFF"/>
		</linearGradient>
		<linearGradient x1="167.532120" y1="3.530102" x2="215.640213" y2="63.020103" id="paint_linear_77_17_0" gradientUnits="userSpaceOnUse">
			<stop stop-color="#FF57FF"/>
			<stop offset="0.360000" stop-color="#ED55FF"/>
			<stop offset="1.000000" stop-color="#C34CFF"/>
		</linearGradient>
	</defs>
	<path id="path" d="M34.71 141.49C22.13 141.41 10.22 134.76 4.2 123.83C1.77 119.39 0.28 114.37 0 109.03C0 107.89 0 106.7 0 105.56C0.65 76.98 15.58 49.24 41.92 33.34C42.54 32.97 45.06 31.55 45.67 31.18C72.76 16.58 104.42 17.56 129.78 31.3C115.39 24.04 97.99 27.59 87.6 39.29C86.08 41.01 84.72 42.84 83.52 44.92L40.77 118.2C39.33 120.69 38.67 123.3 38.67 125.87C38.67 131.7 41.96 137.17 47.2 139.82C48.97 140.72 50.95 141.37 53.1 141.53L34.71 141.49Z" fill="url(#paint_linear_77_13_0)" fill-opacity="1.000000" fill-rule="nonzero"/>
	<path id="path" d="M189.93 186.99C210.3 186.99 222.99 165.18 212.77 147.76L163.54 63.92C155.88 50.79 145.24 40.39 133 33.05C132 32.43 130.97 31.86 129.94 31.29C115.56 24.03 98.03 27.54 87.64 39.25C86.12 40.96 84.76 42.79 83.56 44.87L74.04 61.27C75.44 58.86 77.34 57.03 79.48 55.72C84.43 52.74 90.82 52.74 95.77 55.72C97.95 56.98 99.85 58.86 101.25 61.27L167.01 173.94C171.71 182.02 180.49 186.99 189.93 186.99Z" fill="url(#paint_linear_77_14_0)" fill-opacity="1.000000" fill-rule="nonzero"/>
	<path id="path" d="M134.52 118.16C135.96 120.65 136.62 123.3 136.62 125.87C136.62 131.7 133.28 137.16 128.05 139.81C125.95 140.87 123.51 141.53 120.87 141.53L34.71 141.53C23.21 141.45 12.28 135.86 5.89 126.56C5.52 126.03 5.02 125.3 4.74 124.77C4.7 124.64 4.28 123.99 4.2 123.87C3.91 123.3 3.58 122.73 3.33 122.16C3.09 121.63 2.84 121.1 2.59 120.53C2.43 120.16 2.1 119.22 1.97 118.81C1.85 118.45 1.52 117.47 1.44 117.1C1.36 116.86 1.31 116.61 1.23 116.37C1.15 116 1.03 115.67 0.94 115.31C0.9 115.06 0.82 114.82 0.78 114.57C0.7 114.2 0.61 113.84 0.57 113.47C0.53 113.23 0.49 112.98 0.45 112.74C0.37 112.33 0.33 111.92 0.28 111.51C0.2 110.9 0.08 109.68 0.04 109.03C0.33 123.18 4.12 137.49 11.79 150.62C19.45 163.75 30.09 174.15 42.34 181.49C43.33 182.1 44.36 182.67 45.39 183.25C70.74 196.99 102.49 198.05 129.57 183.41C130.19 183.04 130.85 182.72 131.47 182.35C132.09 181.98 132.71 181.61 133.33 181.25C143.3 175.21 151.59 167.55 158.14 158.78L134.52 118.16Z" fill="url(#paint_linear_77_15_0)" fill-opacity="1.000000" fill-rule="nonzero"/>
	<path id="矩形 85" d="M202.96 102.11C195.17 88.8 199.67 71.73 213.01 63.99C226.34 56.24 243.47 60.75 251.26 74.06L286.99 135.11C294.78 148.42 290.29 165.49 276.95 173.24C263.62 180.98 246.49 176.47 238.7 163.16L202.96 102.11Z" fill="url(#paint_linear_77_16_0)" fill-opacity="1.000000" fill-rule="evenodd"/>
	<ellipse id="椭圆 7" cx="188.863281" cy="29.393555" rx="29.509819" ry="29.393618" fill="url(#paint_linear_77_17_0)" fill-opacity="1.000000"/>
</svg>
