<svg viewBox="0 0 300 300" xmlns="http://www.w3.org/2000/svg" xmlns:xlink="http://www.w3.org/1999/xlink" width="300.000000" height="300.000000" fill="none" customFrame="#000000">
	<defs>
		<linearGradient id="paint_linear_2" x1="99.5030289" x2="233.240479" y1="192.048309" y2="77.5613174" gradientUnits="userSpaceOnUse">
			<stop stop-color="rgb(33,123,254)" offset="0" stop-opacity="1" />
			<stop stop-color="rgb(7,142,251)" offset="0.270000011" stop-opacity="1" />
			<stop stop-color="rgb(161,144,255)" offset="0.77700001" stop-opacity="1" />
			<stop stop-color="rgb(189,153,254)" offset="1" stop-opacity="1" />
		</linearGradient>
		<linearGradient id="paint_linear_3" x1="98.8628845" x2="232.352722" y1="190.945526" y2="75.7949142" gradientUnits="userSpaceOnUse">
			<stop stop-color="rgb(33,123,254)" offset="0" stop-opacity="1" />
			<stop stop-color="rgb(7,142,251)" offset="0.270000011" stop-opacity="1" />
			<stop stop-color="rgb(161,144,255)" offset="0.77700001" stop-opacity="1" />
			<stop stop-color="rgb(189,153,254)" offset="1" stop-opacity="1" />
		</linearGradient>
	</defs>
	<g id="logo">
		<rect id="矩形 1" width="300.000000" height="300.000000" x="0.000000" y="0.000000" fill="rgb(255,255,255)" fill-opacity="0" />
		<g id="组合 316">
			<path id="矢量 480" d="M246.95 140.797C233.562 142.894 220.801 142.333 208.244 139.251C195.647 136.011 184.148 130.71 174.065 123.503C163.982 116.298 155.296 107.162 148.262 96.3862C141.391 85.5841 136.89 73.7955 134.763 60.6225C134.752 60.5546 134.723 60.4902 134.68 60.4366C134.636 60.3839 134.577 60.3428 134.513 60.3178C134.447 60.2936 134.376 60.2865 134.308 60.2972C134.241 60.307 134.178 60.3347 134.126 60.3767C134.073 60.4188 134.033 60.4733 134.009 60.5358C133.986 60.5975 133.978 60.6645 133.989 60.7306C136.115 73.9036 135.468 86.4984 132.176 98.8921C129.048 111.274 123.747 122.586 116.432 132.518C109.115 142.45 99.84 151.004 88.8989 157.932C77.9327 164.7 65.9629 169.133 52.5744 171.231C52.3741 171.275 52.2256 171.477 52.2578 171.677C52.2918 171.89 52.4948 172.023 52.6979 171.991C66.0729 169.896 78.8603 170.534 91.4571 173.775C104.027 176.855 115.513 182.076 125.596 189.282C135.682 196.501 144.284 205.636 151.157 216.451C158.192 227.228 162.771 238.99 164.9 252.177C164.911 252.243 164.939 252.304 164.982 252.356C165.024 252.408 165.079 252.447 165.143 252.472C165.205 252.496 165.273 252.503 165.34 252.492C165.406 252.482 165.47 252.454 165.523 252.412C165.575 252.37 165.615 252.315 165.639 252.254C165.663 252.191 165.67 252.123 165.66 252.058C163.531 238.871 164.099 226.302 167.228 213.934C170.519 201.527 175.901 190.201 183.214 180.256C190.531 170.326 199.805 161.852 210.786 155.083C221.727 148.156 233.682 143.641 247.057 141.547C247.274 141.512 247.409 141.314 247.377 141.113C247.368 141.048 247.342 140.987 247.301 140.935C247.26 140.883 247.208 140.843 247.145 140.819C247.083 140.794 247.015 140.787 246.95 140.797Z" fill="url(#paint_linear_2)" fill-rule="evenodd" />
			<path id="矢量 481" d="M196.871 52.8257C193.536 52.5833 190.505 51.7422 187.668 50.3121C184.831 48.842 182.375 46.9414 180.369 44.6667C178.365 42.391 176.806 39.7332 175.737 36.7759C174.71 33.8222 174.308 30.7643 174.555 27.5085C174.557 27.4916 174.554 27.4746 174.546 27.4595C174.539 27.4443 174.527 27.431 174.514 27.4221C174.5 27.4123 174.483 27.4069 174.465 27.406C174.449 27.4043 174.432 27.4078 174.417 27.4141C174.403 27.4212 174.389 27.4328 174.38 27.4461C174.37 27.4595 174.366 27.4746 174.364 27.4907C174.115 30.7473 173.234 33.7117 171.732 36.481C170.267 39.2574 168.344 41.6577 166.016 43.618C163.687 45.5782 160.968 47.1027 157.943 48.1461C154.921 49.1502 151.792 49.5432 148.458 49.2999C148.406 49.2999 148.36 49.3391 148.356 49.389C148.352 49.4416 148.392 49.4844 148.443 49.4888C151.774 49.7312 154.807 50.5919 157.645 52.0621C160.485 53.4921 162.942 55.3731 164.947 57.6487C166.952 59.927 168.491 62.5804 169.52 65.5368C170.586 68.4941 171.009 71.5502 170.761 74.8096C170.76 74.8256 170.762 74.8416 170.77 74.8568C170.777 74.871 170.787 74.8835 170.802 74.8924C170.815 74.9022 170.831 74.9076 170.849 74.9085C170.866 74.9094 170.882 74.9067 170.896 74.8996C170.912 74.8924 170.924 74.8817 170.934 74.8684C170.943 74.855 170.949 74.839 170.95 74.8229C171.198 71.5636 172.058 68.601 173.522 65.8282C175.026 63.0554 176.97 60.6559 179.297 58.6921C181.627 56.7319 184.34 55.2278 187.366 54.2237C190.392 53.1803 193.522 52.7677 196.853 53.0101C196.907 53.0137 196.951 52.9745 196.954 52.9246C196.956 52.9085 196.954 52.8925 196.946 52.8782C196.94 52.864 196.929 52.8506 196.917 52.8417C196.902 52.8328 196.886 52.8266 196.87 52.8257L196.871 52.8257Z" fill="url(#paint_linear_3)" fill-rule="evenodd" />
		</g>
	</g>
</svg>
