<svg viewBox="0 0 636 636" xmlns="http://www.w3.org/2000/svg" xmlns:xlink="http://www.w3.org/1999/xlink" width="636" height="636" fill="none" customFrame="#000000">
	<defs>
		<clipPath id="clipPath_0">
			<rect width="630.469543" height="409.252167" x="5.53027344" y="110.608887" fill="rgb(255,255,255)" />
		</clipPath>
		<linearGradient id="paint_linear_4" x1="29.0501556" x2="233.163589" y1="505.856873" y2="12.8375092" gradientUnits="userSpaceOnUse">
			<stop stop-color="rgb(36,126,255)" offset="0.189999998" stop-opacity="1" />
			<stop stop-color="rgb(30,204,241)" offset="0.447741002" stop-opacity="1" />
			<stop stop-color="rgb(40,255,239)" offset="0.709999979" stop-opacity="1" />
		</linearGradient>
		<linearGradient id="paint_linear_5" x1="212.608231" x2="426.577087" y1="171.127625" y2="543.332397" gradientUnits="userSpaceOnUse">
			<stop stop-color="rgb(61,44,254)" offset="0.0199999996" stop-opacity="1" />
			<stop stop-color="rgb(112,62,255)" offset="0.289999992" stop-opacity="1" />
			<stop stop-color="rgb(176,80,255)" offset="0.595191002" stop-opacity="1" />
			<stop stop-color="rgb(242,97,255)" offset="0.970992029" stop-opacity="1" />
		</linearGradient>
		<linearGradient id="paint_linear_6" x1="301.63913" x2="20.7294006" y1="430.167816" y2="430.167816" gradientUnits="userSpaceOnUse">
			<stop stop-color="rgb(38,70,255)" offset="0" stop-opacity="1" />
			<stop stop-color="rgb(55,118,255)" offset="0.300000012" stop-opacity="1" />
			<stop stop-color="rgb(77,201,255)" offset="0.849856973" stop-opacity="1" />
		</linearGradient>
		<linearGradient id="paint_linear_7" x1="423.180756" x2="641.179321" y1="280.828247" y2="465.816162" gradientUnits="userSpaceOnUse">
			<stop stop-color="rgb(255,87,255)" offset="0" stop-opacity="1" />
			<stop stop-color="rgb(237,85,255)" offset="0.360000014" stop-opacity="1" />
			<stop stop-color="rgb(195,76,255)" offset="1" stop-opacity="1" />
		</linearGradient>
		<linearGradient id="paint_linear_8" x1="356.44043" x2="457.206848" y1="118.055458" y2="243.552414" gradientUnits="userSpaceOnUse">
			<stop stop-color="rgb(255,87,255)" offset="0" stop-opacity="1" />
			<stop stop-color="rgb(237,85,255)" offset="0.360000014" stop-opacity="1" />
			<stop stop-color="rgb(195,76,255)" offset="1" stop-opacity="1" />
		</linearGradient>
	</defs>
	<g id="组合 78">
		<rect id="矩形 87" width="636" height="636" x="0" y="0" fill="rgb(255,254.745,254.745)" fill-opacity="0" />
		<g id="web_logo" clip-path="url(#clipPath_0)" customFrame="url(#clipPath_0)">
			<rect id="web_logo" width="630.469543" height="409.252167" x="5.53027344" y="110.608887" />
			<path id="path" d="M78.2337 409.089C51.8839 408.92 26.9374 394.891 14.328 371.834C9.23817 362.468 6.11724 351.878 5.53076 340.613C5.53076 338.208 5.53076 335.698 5.53076 333.293C6.89224 273.002 38.1644 214.483 93.3357 180.941C94.6343 180.161 99.9127 177.165 101.19 176.385C157.933 145.585 224.247 147.653 277.366 176.638C247.225 161.322 210.779 168.811 189.016 193.493C185.832 197.121 182.984 200.982 180.47 205.37L90.9269 359.957C87.9107 365.21 86.5283 370.716 86.5283 376.138C86.5283 388.436 93.4195 399.975 104.395 405.566C108.102 407.464 112.25 408.836 116.753 409.173L78.2337 409.089Z" fill="url(#paint_linear_4)" fill-rule="nonzero" />
			<path id="path" d="M403.355 505.073C446.022 505.073 472.602 459.064 451.195 422.315L348.079 245.451C332.034 217.753 309.748 195.813 284.11 180.329C282.016 179.021 279.858 177.819 277.701 176.617C247.581 161.301 210.863 168.706 189.1 193.409C185.916 197.016 183.068 200.876 180.554 205.264L160.614 239.861C163.546 234.777 167.526 230.916 172.008 228.153C182.376 221.866 195.761 221.866 206.129 228.153C210.695 230.811 214.675 234.777 217.607 239.861L355.347 477.543C365.192 494.589 383.582 505.073 403.355 505.073Z" fill="url(#paint_linear_5)" fill-rule="nonzero" />
			<path id="path" d="M287.294 359.873C290.311 365.126 291.693 370.716 291.693 376.138C291.693 388.436 284.697 399.954 273.742 405.545C269.344 407.781 264.233 409.173 258.703 409.173L78.2339 409.173C54.1462 409.004 31.2524 397.212 17.8681 377.593C17.0931 376.475 16.0458 374.935 15.4593 373.817C15.3755 373.543 14.4958 372.172 14.3282 371.918C13.7208 370.716 13.0296 369.514 12.5059 368.311C12.0032 367.193 11.4796 366.075 10.9559 364.873C10.6208 364.092 9.92959 362.109 9.65729 361.244C9.40594 360.485 8.71473 358.417 8.54716 357.637C8.3796 357.131 8.27487 356.603 8.1073 356.097C7.93973 355.316 7.68838 354.62 7.49987 353.861C7.41609 353.333 7.24852 352.827 7.16474 352.3C6.99717 351.519 6.80866 350.76 6.72488 349.979C6.64109 349.473 6.55731 348.946 6.47353 348.439C6.30596 347.574 6.22218 346.709 6.11745 345.844C5.94988 344.558 5.69853 341.984 5.61475 340.613C6.22218 370.463 14.1606 400.651 30.2261 428.349C46.2706 456.047 68.557 477.987 94.2156 493.471C96.2893 494.757 98.4467 495.96 100.604 497.183C153.702 526.169 220.205 528.405 276.926 497.521C278.225 496.74 279.607 496.065 280.906 495.285C282.204 494.504 283.503 493.724 284.802 492.964C305.685 480.223 323.049 464.064 336.768 445.563L287.294 359.873Z" fill="url(#paint_linear_6)" fill-rule="nonzero" />
			<path id="矩形 85" d="M430.648 326.015C414.331 297.936 423.757 261.927 451.698 245.599C479.619 229.25 515.499 238.764 531.816 266.842L606.656 395.63C622.972 423.708 613.568 459.718 585.626 476.067C557.705 492.395 521.825 482.88 505.508 454.802L430.648 326.015Z" fill="url(#paint_linear_7)" fill-rule="evenodd" />
			<ellipse id="椭圆 7" rx="61.8107872" ry="62.0072212" cx="401.12085" cy="172.615616" fill="url(#paint_linear_8)" />
		</g>
	</g>
</svg>
