<svg viewBox="0 0 68 68" xmlns="http://www.w3.org/2000/svg" xmlns:xlink="http://www.w3.org/1999/xlink" width="68.000000" height="68.000000" fill="none" customFrame="#000000">
	<defs>
		<linearGradient id="paint_linear_8" x1="53.9999199" x2="34.0046196" y1="31.1838417" y2="39.1744537" gradientUnits="userSpaceOnUse">
			<stop stop-color="rgb(235,162,255)" offset="0" stop-opacity="1" />
			<stop stop-color="rgb(120,129,250)" offset="1" stop-opacity="1" />
		</linearGradient>
		<linearGradient id="paint_linear_9" x1="46.3827057" x2="58.3114586" y1="13.1443462" y2="22.0021286" gradientUnits="userSpaceOnUse">
			<stop stop-color="rgb(225,223,253)" offset="0" stop-opacity="1" />
			<stop stop-color="rgb(163,178,252)" offset="1" stop-opacity="1" />
		</linearGradient>
		<linearGradient id="paint_linear_10" x1="20.9170704" x2="36.3390961" y1="15.0133705" y2="34.7833061" gradientUnits="userSpaceOnUse">
			<stop stop-color="rgb(255,216,186)" offset="0" stop-opacity="1" />
			<stop stop-color="rgb(233,132,252)" offset="1" stop-opacity="1" />
		</linearGradient>
		<linearGradient id="paint_linear_11" x1="49.5875931" x2="36.9110909" y1="24.3532047" y2="44.7958298" gradientUnits="userSpaceOnUse">
			<stop stop-color="rgb(32,117,255)" offset="0" stop-opacity="1" />
			<stop stop-color="rgb(255,232,216)" offset="0.837222993" stop-opacity="1" />
		</linearGradient>
		<linearGradient id="paint_linear_12" x1="13.894578" x2="14.6340895" y1="17.138649" y2="29.8292217" gradientUnits="userSpaceOnUse">
			<stop stop-color="rgb(225,223,253)" offset="0" stop-opacity="1" />
			<stop stop-color="rgb(163,178,252)" offset="1" stop-opacity="1" />
		</linearGradient>
		<linearGradient id="paint_linear_13" x1="28.1107082" x2="17.8615265" y1="27.8883381" y2="52.4187584" gradientUnits="userSpaceOnUse">
			<stop stop-color="rgb(68,112,255)" offset="0" stop-opacity="1" />
			<stop stop-color="rgb(130,130,255)" offset="0.983952999" stop-opacity="1" />
		</linearGradient>
		<linearGradient id="paint_linear_14" x1="31.3485165" x2="31.3439617" y1="55.3206787" y2="55.3579941" gradientUnits="userSpaceOnUse">
			<stop stop-color="rgb(225,223,254)" offset="0" stop-opacity="1" />
			<stop stop-color="rgb(163,179,253)" offset="1" stop-opacity="1" />
		</linearGradient>
		<linearGradient id="paint_linear_15" x1="34.720623" x2="28.5005875" y1="42.9403992" y2="53.4239044" gradientUnits="userSpaceOnUse">
			<stop stop-color="rgb(225,223,254)" offset="0" stop-opacity="1" />
			<stop stop-color="rgb(163,179,253)" offset="1" stop-opacity="1" />
		</linearGradient>
	</defs>
	<g id="组合 282">
		<rect id="矩形 127" width="68.000000" height="68.000000" x="0.000000" y="0.000000" fill="rgb(196,196,196)" fill-opacity="0" />
		<g id="组合 281">
			<path id="矢量 422" d="M45.4695 50.3046L51.1769 47.0434C52.9243 46.0447 53.9999 44.1986 53.9999 42.2013L53.9999 25.7921C53.9999 25.4402 53.9645 25.0938 53.8994 24.7548C53.8994 24.7548 53.7152 23.6972 53.1327 22.8184C53.1327 22.8202 53.1345 22.8239 53.1364 22.8257C53.4714 23.6217 53.609 24.4895 53.5514 25.3499C53.5012 26.1017 53.3096 26.9934 52.8759 27.9938C52.6879 28.3937 52.2488 29.1749 51.415 29.9857C48.0468 33.0718 38.6196 38.6508 32.3874 42.205C32.0226 42.4132 32.0245 42.9309 32.3874 43.1392L44.9242 50.3046C45.0936 50.4004 45.302 50.4004 45.4695 50.3046Z" fill="url(#paint_linear_8)" fill-rule="nonzero" />
			<path id="矢量 425" d="M51.4137 29.9845C52.2493 29.1756 52.6865 28.3925 52.8745 27.9928C53.3082 26.9923 53.4998 26.1005 53.55 25.3488C53.6078 24.4883 53.47 23.6205 53.135 22.8246C53.135 22.8227 53.135 22.8209 53.1331 22.8191C52.6511 22.0599 51.9869 21.4151 51.1756 20.9508L47.2583 18.7103C46.8936 18.5021 46.4395 18.7619 46.4395 19.1783L46.4395 33.6861C48.535 32.2894 50.3028 31.0016 51.4137 29.9845Z" fill="url(#paint_linear_9)" fill-rule="nonzero" />
			<path id="矢量 426" d="M42.5278 16.0102L36.8203 12.749C35.073 11.7503 32.9217 11.7503 31.1744 12.749L16.8231 20.9517C16.5141 21.1286 16.2294 21.3313 15.9652 21.556C15.9652 21.556 15.1296 22.2414 14.6514 23.1811C14.6514 23.1793 14.6551 23.1774 14.657 23.1737C15.1854 22.4883 15.8758 21.9356 16.6574 21.556C17.3404 21.2226 18.215 20.9425 19.3074 20.8135C19.7502 20.7748 20.6546 20.7601 21.7786 21.0715C26.1629 22.4165 35.7558 27.7099 41.9807 31.277C42.3454 31.4851 42.7975 31.2235 42.7975 30.8091L42.7975 16.4782C42.7975 16.2847 42.6934 16.106 42.524 16.0102L42.5278 16.0102Z" fill="url(#paint_linear_10)" fill-rule="nonzero" />
			<path id="矢量 427" d="M42.5278 16.0102L36.8203 12.749C35.073 11.7503 32.9217 11.7503 31.1744 12.749L16.8231 20.9517C16.5141 21.1286 16.2294 21.3313 15.9652 21.556C15.9652 21.556 15.1296 22.2414 14.6514 23.1811C14.6514 23.1793 14.6551 23.1774 14.657 23.1737C15.1854 22.4883 15.8758 21.9356 16.6574 21.556C17.3404 21.2226 18.215 20.9425 19.3074 20.8135C19.7502 20.7748 20.6546 20.7601 21.7786 21.0715C26.1629 22.4165 35.7558 27.7099 41.9807 31.277C42.3454 31.4851 42.7975 31.2235 42.7975 30.8091L42.7975 16.4782C42.7975 16.2847 42.6934 16.106 42.524 16.0102L42.5278 16.0102Z" fill="url(#paint_linear_11)" fill-rule="nonzero" />
			<path id="矢量 429" d="M21.7826 21.0736C20.6568 20.7622 19.7542 20.777 19.3114 20.8157C18.219 20.9446 17.3444 21.2247 16.6614 21.5582C15.8798 21.9396 15.1895 22.4905 14.661 23.1759C14.661 23.1759 14.6591 23.1796 14.6572 23.1814C14.2348 23.9737 14.0022 24.8673 14.0022 25.7941L14.0022 30.2731C14.0022 30.6896 14.4563 30.9494 14.821 30.7412L27.5105 23.4873C25.2402 22.3891 23.2304 21.5158 21.7845 21.0736L21.7826 21.0736Z" fill="url(#paint_linear_12)" fill-rule="nonzero" />
			<path id="矢量 430" d="M14 35.6781L14 42.2023C14 44.1995 15.0756 46.0457 16.823 47.0443L31.1761 55.249C31.485 55.4258 31.8051 55.5677 32.1345 55.6819L32.1326 55.6819C32.1326 55.6819 33.1525 56.0542 34.2131 55.9933C34.2095 55.9933 34.2076 55.9933 34.2038 55.9933C33.3403 55.8828 32.5122 55.5658 31.7884 55.0869C31.1556 54.6667 30.4727 54.0588 29.814 53.1854C29.559 52.8243 29.0938 52.0578 28.8035 50.9375C27.7893 46.5063 27.6218 35.6339 27.6292 28.5126C27.6292 28.0963 27.1752 27.8382 26.8105 28.0466L14.2736 35.2101C14.1042 35.3059 14 35.4846 14 35.6781Z" fill="url(#paint_linear_13)" fill-rule="nonzero" />
			<path id="矢量 432" d="M31.3784 55.3572C31.3579 55.3461 31.3374 55.3369 31.3169 55.3259C31.3374 55.3369 31.3579 55.3479 31.3784 55.3572Z" fill="url(#paint_linear_14)" fill-rule="nonzero" />
			<path id="矢量 433" d="M40.7416 52.0721L28.052 44.8184C28.2269 47.313 28.4688 49.4743 28.8038 50.9354C29.0941 52.0555 29.5593 52.8239 29.8143 53.1831C30.473 54.0565 31.156 54.6646 31.7888 55.0846C32.5126 55.5637 33.3408 55.8807 34.2041 55.9912C34.206 55.9912 34.2079 55.9912 34.2097 55.9912C35.1141 55.958 36.013 55.7093 36.8225 55.2467L40.7397 53.0063C41.1044 52.7981 41.1044 52.2786 40.7397 52.0703L40.7416 52.0721Z" fill="url(#paint_linear_15)" fill-rule="nonzero" />
		</g>
	</g>
</svg>
